<mxfile host="app.diagrams.net" modified="2020-06-18T16:55:04.490Z" agent="5.0 (Macintosh; Intel Mac OS X 10_15_5) AppleWebKit/537.36 (KHTML, like Gecko) Chrome/83.0.4103.97 Safari/537.36" etag="vjCXNnkjU-kJN9uutJF9" version="13.2.6" type="github">
  <diagram id="C5RBs43oDa-KdzZeNtuy" name="Page-1">
    <mxGraphModel dx="3530" dy="2518" grid="1" gridSize="10" guides="1" tooltips="1" connect="1" arrows="1" fold="1" page="1" pageScale="1" pageWidth="827" pageHeight="1169" math="0" shadow="0">
      <root>
        <mxCell id="WIyWlLk6GJQsqaUBKTNV-0" />
        <mxCell id="WIyWlLk6GJQsqaUBKTNV-1" parent="WIyWlLk6GJQsqaUBKTNV-0" />
        <mxCell id="uQ-XWgEHN9rOL8nD1H7O-12" value="" style="edgeStyle=orthogonalEdgeStyle;rounded=0;orthogonalLoop=1;jettySize=auto;html=1;dashed=1;startArrow=none;startFill=0;endArrow=none;endFill=0;strokeWidth=1;entryX=0.5;entryY=0;entryDx=0;entryDy=0;" parent="WIyWlLk6GJQsqaUBKTNV-1" source="G-hIVbg5v9CWW5Yy8Wli-2" target="MHTNPu9FD_tJbpRzddWY-18" edge="1">
          <mxGeometry relative="1" as="geometry">
            <mxPoint x="480" y="-836" as="targetPoint" />
          </mxGeometry>
        </mxCell>
        <mxCell id="G-hIVbg5v9CWW5Yy8Wli-2" value="&lt;font style=&quot;font-size: 20px&quot;&gt;Commande validée&lt;/font&gt;" style="rounded=1;whiteSpace=wrap;html=1;direction=north;fillColor=#f5f5f5;strokeColor=#666666;fontColor=#333333;aspect=fixed;" parent="WIyWlLk6GJQsqaUBKTNV-1" vertex="1">
          <mxGeometry x="151.25" y="-870" width="154" height="64.26" as="geometry" />
        </mxCell>
        <mxCell id="SvVdULVF1Hvvb6DCQOAH-13" value="&lt;font color=&quot;#000000&quot; style=&quot;font-size: 28px&quot;&gt;&lt;b&gt;&lt;br&gt;&lt;/b&gt;&lt;/font&gt;" style="text;html=1;strokeColor=none;fillColor=none;align=center;verticalAlign=middle;whiteSpace=wrap;rounded=0;fontColor=#FF99CC;" parent="WIyWlLk6GJQsqaUBKTNV-1" vertex="1">
          <mxGeometry x="170" y="-330" width="590" height="110" as="geometry" />
        </mxCell>
        <mxCell id="MHTNPu9FD_tJbpRzddWY-18" value="&lt;i&gt;&lt;font style=&quot;font-size: 15px&quot;&gt;Génération du QR Code (n° de commande)&lt;/font&gt;&lt;/i&gt;" style="rounded=1;whiteSpace=wrap;html=1;direction=north;fillColor=#F5F5F5;strokeColor=#666666;dashed=1;dashPattern=1 2;" parent="WIyWlLk6GJQsqaUBKTNV-1" vertex="1">
          <mxGeometry x="583" y="-867.8699999999999" width="280" height="60" as="geometry" />
        </mxCell>
        <mxCell id="bbMm7TcKJNfFNzZPyWXp-14" value="" style="shape=sumEllipse;perimeter=ellipsePerimeter;whiteSpace=wrap;html=1;backgroundOutline=1;fillColor=#6C8EBF;gradientColor=#ffffff;aspect=fixed;strokeColor=#6C8EBF;" parent="WIyWlLk6GJQsqaUBKTNV-1" vertex="1">
          <mxGeometry x="214.07999999999998" y="-196" width="40" height="40" as="geometry" />
        </mxCell>
        <mxCell id="r6B5fu9Dz2np9eA2oj06-0" value="" style="edgeStyle=orthogonalEdgeStyle;rounded=0;orthogonalLoop=1;jettySize=auto;html=1;" parent="WIyWlLk6GJQsqaUBKTNV-1" source="lGdV4SZ8Vo6F00BAJfgW-0" target="G-hIVbg5v9CWW5Yy8Wli-2" edge="1">
          <mxGeometry relative="1" as="geometry" />
        </mxCell>
        <mxCell id="lGdV4SZ8Vo6F00BAJfgW-0" value="" style="ellipse;whiteSpace=wrap;html=1;aspect=fixed;fillColor=#6C8EBF;gradientColor=none;strokeColor=#6C8EBF;" parent="WIyWlLk6GJQsqaUBKTNV-1" vertex="1">
          <mxGeometry x="209.5" y="-1000" width="37.5" height="37.5" as="geometry" />
        </mxCell>
        <mxCell id="r6B5fu9Dz2np9eA2oj06-35" value="" style="edgeStyle=orthogonalEdgeStyle;rounded=0;orthogonalLoop=1;jettySize=auto;html=1;entryX=1;entryY=0.5;entryDx=0;entryDy=0;" parent="WIyWlLk6GJQsqaUBKTNV-1" source="r6B5fu9Dz2np9eA2oj06-4" target="r6B5fu9Dz2np9eA2oj06-11" edge="1">
          <mxGeometry relative="1" as="geometry">
            <mxPoint x="37" y="-575.7399999999998" as="targetPoint" />
          </mxGeometry>
        </mxCell>
        <mxCell id="r6B5fu9Dz2np9eA2oj06-4" value="&lt;font style=&quot;font-size: 20px&quot;&gt;Ajout&lt;/font&gt;" style="rounded=1;whiteSpace=wrap;html=1;direction=north;fillColor=#f5f5f5;strokeColor=#666666;fontColor=#333333;aspect=fixed;" parent="WIyWlLk6GJQsqaUBKTNV-1" vertex="1">
          <mxGeometry x="-41" y="-680" width="154" height="64.26" as="geometry" />
        </mxCell>
        <mxCell id="r6B5fu9Dz2np9eA2oj06-7" value="&lt;font style=&quot;font-size: 20px&quot;&gt;Règlement OK&lt;/font&gt;" style="rounded=1;whiteSpace=wrap;html=1;direction=north;aspect=fixed;fillColor=#f5f5f5;strokeColor=#666666;fontColor=#333333;" parent="WIyWlLk6GJQsqaUBKTNV-1" vertex="1">
          <mxGeometry x="350" y="-680" width="154" height="64.26" as="geometry" />
        </mxCell>
        <mxCell id="r6B5fu9Dz2np9eA2oj06-32" value="" style="edgeStyle=orthogonalEdgeStyle;rounded=0;orthogonalLoop=1;jettySize=auto;html=1;entryX=1;entryY=0.5;entryDx=0;entryDy=0;" parent="WIyWlLk6GJQsqaUBKTNV-1" source="r6B5fu9Dz2np9eA2oj06-11" target="r6B5fu9Dz2np9eA2oj06-29" edge="1">
          <mxGeometry relative="1" as="geometry" />
        </mxCell>
        <mxCell id="r6B5fu9Dz2np9eA2oj06-11" value="&lt;span style=&quot;font-size: 20px&quot;&gt;Retour&lt;br&gt;&quot;Création panier&quot;&lt;/span&gt;" style="rounded=1;whiteSpace=wrap;html=1;direction=north;aspect=fixed;fillColor=#f5f5f5;strokeColor=#666666;fontColor=#333333;dashed=1;strokeWidth=2;" parent="WIyWlLk6GJQsqaUBKTNV-1" vertex="1">
          <mxGeometry x="-43.5" y="-570" width="159" height="66.36" as="geometry" />
        </mxCell>
        <mxCell id="r6B5fu9Dz2np9eA2oj06-20" value="&lt;font style=&quot;font-size: 20px&quot;&gt;Annulation&lt;/font&gt;" style="rounded=1;whiteSpace=wrap;html=1;direction=north;fillColor=#f5f5f5;strokeColor=#666666;fontColor=#333333;aspect=fixed;" parent="WIyWlLk6GJQsqaUBKTNV-1" vertex="1">
          <mxGeometry x="150.07999999999998" y="-680" width="154" height="64.26" as="geometry" />
        </mxCell>
        <mxCell id="r6B5fu9Dz2np9eA2oj06-37" value="" style="edgeStyle=orthogonalEdgeStyle;rounded=0;orthogonalLoop=1;jettySize=auto;html=1;" parent="WIyWlLk6GJQsqaUBKTNV-1" source="r6B5fu9Dz2np9eA2oj06-29" edge="1">
          <mxGeometry relative="1" as="geometry">
            <mxPoint x="147" y="-840" as="targetPoint" />
            <Array as="points">
              <mxPoint x="-90" y="-418" />
              <mxPoint x="-90" y="-840" />
            </Array>
          </mxGeometry>
        </mxCell>
        <mxCell id="r6B5fu9Dz2np9eA2oj06-29" value="&lt;span style=&quot;font-size: 20px&quot;&gt;Commande modifiée&lt;/span&gt;" style="rounded=1;whiteSpace=wrap;html=1;direction=north;aspect=fixed;fillColor=#f5f5f5;strokeColor=#666666;fontColor=#333333;" parent="WIyWlLk6GJQsqaUBKTNV-1" vertex="1">
          <mxGeometry x="-41" y="-459.9999999999998" width="154" height="64.26" as="geometry" />
        </mxCell>
        <mxCell id="r6B5fu9Dz2np9eA2oj06-41" value="" style="endArrow=classic;html=1;exitX=0;exitY=0.5;exitDx=0;exitDy=0;entryX=1;entryY=0.5;entryDx=0;entryDy=0;" parent="WIyWlLk6GJQsqaUBKTNV-1" source="r6B5fu9Dz2np9eA2oj06-20" target="r6B5fu9Dz2np9eA2oj06-45" edge="1">
          <mxGeometry width="50" height="50" relative="1" as="geometry">
            <mxPoint x="140" y="-630" as="sourcePoint" />
            <mxPoint x="266" y="-590" as="targetPoint" />
          </mxGeometry>
        </mxCell>
        <mxCell id="r6B5fu9Dz2np9eA2oj06-55" value="" style="edgeStyle=orthogonalEdgeStyle;rounded=0;orthogonalLoop=1;jettySize=auto;html=1;startArrow=none;startFill=0;endArrow=classic;endFill=1;entryX=0.5;entryY=0;entryDx=0;entryDy=0;" parent="WIyWlLk6GJQsqaUBKTNV-1" source="r6B5fu9Dz2np9eA2oj06-45" target="r6B5fu9Dz2np9eA2oj06-52" edge="1">
          <mxGeometry relative="1" as="geometry">
            <mxPoint x="266" y="-500" as="targetPoint" />
          </mxGeometry>
        </mxCell>
        <mxCell id="r6B5fu9Dz2np9eA2oj06-45" value="&lt;font style=&quot;font-size: 20px&quot;&gt;Retour au catalogue&lt;/font&gt;" style="rounded=1;whiteSpace=wrap;html=1;direction=north;fillColor=#f5f5f5;strokeColor=#666666;fontColor=#333333;aspect=fixed;" parent="WIyWlLk6GJQsqaUBKTNV-1" vertex="1">
          <mxGeometry x="150.07999999999998" y="-590" width="154" height="64.26" as="geometry" />
        </mxCell>
        <mxCell id="r6B5fu9Dz2np9eA2oj06-49" value="" style="edgeStyle=orthogonalEdgeStyle;rounded=0;orthogonalLoop=1;jettySize=auto;html=1;startArrow=classic;startFill=1;endArrow=none;endFill=0;entryX=0;entryY=0.5;entryDx=0;entryDy=0;exitX=0.5;exitY=0;exitDx=0;exitDy=0;" parent="WIyWlLk6GJQsqaUBKTNV-1" source="r6B5fu9Dz2np9eA2oj06-80" target="r6B5fu9Dz2np9eA2oj06-7" edge="1">
          <mxGeometry relative="1" as="geometry">
            <mxPoint x="236" y="-350" as="sourcePoint" />
            <mxPoint x="323.5" y="-335.55999999999995" as="targetPoint" />
            <Array as="points">
              <mxPoint x="236" y="-320" />
              <mxPoint x="236" y="-370" />
              <mxPoint x="501" y="-370" />
              <mxPoint x="501" y="-616" />
            </Array>
          </mxGeometry>
        </mxCell>
        <mxCell id="r6B5fu9Dz2np9eA2oj06-52" value="" style="shape=sumEllipse;perimeter=ellipsePerimeter;whiteSpace=wrap;html=1;backgroundOutline=1;strokeColor=#6C8EBF;strokeWidth=2;fillColor=#6C8EBF;gradientColor=#ffffff;aspect=fixed;" parent="WIyWlLk6GJQsqaUBKTNV-1" vertex="1">
          <mxGeometry x="207" y="-480" width="40" height="40" as="geometry" />
        </mxCell>
        <mxCell id="r6B5fu9Dz2np9eA2oj06-74" value="" style="endArrow=classic;html=1;entryX=1;entryY=0.5;entryDx=0;entryDy=0;exitX=0;exitY=0.5;exitDx=0;exitDy=0;" parent="WIyWlLk6GJQsqaUBKTNV-1" source="r6B5fu9Dz2np9eA2oj06-75" target="r6B5fu9Dz2np9eA2oj06-4" edge="1">
          <mxGeometry width="50" height="50" relative="1" as="geometry">
            <mxPoint x="30" y="-760" as="sourcePoint" />
            <mxPoint x="440" y="-670" as="targetPoint" />
          </mxGeometry>
        </mxCell>
        <mxCell id="r6B5fu9Dz2np9eA2oj06-75" value="" style="rhombus;whiteSpace=wrap;html=1;strokeColor=#000000;strokeWidth=2;fillColor=#FFFFFF;gradientColor=#ffffff;rotation=0;" parent="WIyWlLk6GJQsqaUBKTNV-1" vertex="1">
          <mxGeometry x="198.25" y="-781" width="60" height="70" as="geometry" />
        </mxCell>
        <mxCell id="r6B5fu9Dz2np9eA2oj06-76" value="" style="endArrow=classic;html=1;exitX=0.5;exitY=1;exitDx=0;exitDy=0;entryX=1;entryY=0.5;entryDx=0;entryDy=0;" parent="WIyWlLk6GJQsqaUBKTNV-1" source="r6B5fu9Dz2np9eA2oj06-75" target="r6B5fu9Dz2np9eA2oj06-20" edge="1">
          <mxGeometry width="50" height="50" relative="1" as="geometry">
            <mxPoint x="390" y="-620" as="sourcePoint" />
            <mxPoint x="440" y="-670" as="targetPoint" />
          </mxGeometry>
        </mxCell>
        <mxCell id="r6B5fu9Dz2np9eA2oj06-77" value="" style="endArrow=classic;html=1;entryX=1;entryY=0.5;entryDx=0;entryDy=0;exitX=1;exitY=0.5;exitDx=0;exitDy=0;" parent="WIyWlLk6GJQsqaUBKTNV-1" source="r6B5fu9Dz2np9eA2oj06-75" target="r6B5fu9Dz2np9eA2oj06-7" edge="1">
          <mxGeometry width="50" height="50" relative="1" as="geometry">
            <mxPoint x="390" y="-620" as="sourcePoint" />
            <mxPoint x="440" y="-670" as="targetPoint" />
          </mxGeometry>
        </mxCell>
        <mxCell id="r6B5fu9Dz2np9eA2oj06-78" value="" style="endArrow=classic;html=1;entryX=0.5;entryY=0;entryDx=0;entryDy=0;exitX=0;exitY=0.5;exitDx=0;exitDy=0;" parent="WIyWlLk6GJQsqaUBKTNV-1" source="G-hIVbg5v9CWW5Yy8Wli-2" target="r6B5fu9Dz2np9eA2oj06-75" edge="1">
          <mxGeometry width="50" height="50" relative="1" as="geometry">
            <mxPoint x="390" y="-620" as="sourcePoint" />
            <mxPoint x="440" y="-670" as="targetPoint" />
          </mxGeometry>
        </mxCell>
        <mxCell id="r6B5fu9Dz2np9eA2oj06-80" value="&lt;font style=&quot;font-size: 19px&quot;&gt;Process de réalisation&lt;/font&gt;" style="rounded=1;whiteSpace=wrap;html=1;strokeColor=#000000;strokeWidth=2;fillColor=#FFFFFF;gradientColor=#ffffff;" parent="WIyWlLk6GJQsqaUBKTNV-1" vertex="1">
          <mxGeometry x="165.24999999999997" y="-300" width="140" height="75.56" as="geometry" />
        </mxCell>
        <mxCell id="r6B5fu9Dz2np9eA2oj06-84" value="" style="endArrow=classic;html=1;entryX=0.5;entryY=0;entryDx=0;entryDy=0;exitX=0.5;exitY=1;exitDx=0;exitDy=0;" parent="WIyWlLk6GJQsqaUBKTNV-1" source="r6B5fu9Dz2np9eA2oj06-80" target="bbMm7TcKJNfFNzZPyWXp-14" edge="1">
          <mxGeometry width="50" height="50" relative="1" as="geometry">
            <mxPoint x="390" y="-420" as="sourcePoint" />
            <mxPoint x="440" y="-470" as="targetPoint" />
          </mxGeometry>
        </mxCell>
        <mxCell id="UWCc2bfLOeQIi4e28YJl-0" value="&lt;font style=&quot;font-size: 20px&quot;&gt;&lt;b&gt;Panier validé&lt;/b&gt;&lt;/font&gt;" style="text;html=1;strokeColor=none;fillColor=none;align=center;verticalAlign=middle;whiteSpace=wrap;rounded=0;" vertex="1" parent="WIyWlLk6GJQsqaUBKTNV-1">
          <mxGeometry x="263" y="-991.25" width="160" height="20" as="geometry" />
        </mxCell>
      </root>
    </mxGraphModel>
  </diagram>
</mxfile>
